<?xml version="1.0" encoding="UTF-8" standalone="no"?>
<!-- Created with Inkscape (http://www.inkscape.org/) -->
<svg
   xmlns:svg="http://www.w3.org/2000/svg"
   xmlns="http://www.w3.org/2000/svg"
   version="1.0"
   width="800"
   height="499"
   viewBox="0 0 1753.85 1092.65"
   id="svg2"
   xml:space="preserve">
 <defs
   id="defs4">
  <style
   type="text/css"
   id="style6" />
 
  
  
 
   
   
   
   
   
   
   
   
   
   
  </defs>
 <polygon
   points="0,1092.65 1753.85,1092.65 1753.85,0 0,0 0,1092.65 "
   style="fill:#da251d;fill-rule:nonzero"
   id="_44675200" /><g
   id="g2215"><polygon
     points="1753.85,12.9159 0.839343,12.9159 0.839343,1092.65 1753.85,1092.65 1753.85,12.9159 "
     style="fill:#da251d;fill-rule:nonzero"
     id="_45497128" /><g
     id="g2204"><g
       id="g2196"><path
         d="M 218.881,943.139 C 215.02566,961.2131 210.67235,974.3951 204.1549,982.1496 C 197.91307,989.65357 190.0239,994.0382 178.1791,994.0382 L 170.97579,994.0382 L 192.62019,892.2362 L 199.8235,892.2362 C 211.6683,892.2362 217.6877,896.63335 220.7256,904.1154 C 223.96396,911.88245 222.71434,925.0614 218.88093,943.1386 L 218.881,943.139 z M 216.78264,850.044 L 129.43154,850.044 L 89.85714,1036.243 L 181.57094,1036.243 C 238.78094,1036.243 282.75294,1001.4854 294.70694,945.2025 C 306.46404,889.928 291.22743,850.0436 216.78274,850.0436 L 216.78264,850.044 z "
         style="fill:#ffffff;fill-rule:nonzero"
         id="_45496024" /><path
         d="M 436.396,850.044 L 410.7303,970.759 C 407.61408,985.4757 399.4587,991.1444 391.7261,991.1444 C 383.98097,991.1444 378.234,985.47571 381.3627,970.759 L 407.0159,850.044 L 333.3135,850.044 L 306.9932,973.853 C 297.45977,1018.6764 324.9044,1041.0599 381.109,1041.0599 C 437.2886,1041.0599 474.2478,1018.6764 483.772,973.853 L 510.0985,850.044 L 436.3961,850.044 L 436.396,850.044 z "
         style="fill:#ffffff;fill-rule:nonzero"
         id="_45495304" /><path
         d="M 616.773,967.336 C 611.54903,987.0574 603.8916,992.7574 594.3676,992.7574 C 575.8175,992.7574 578.799,971.5546 584.83104,943.1391 C 591.21693,913.1733 597.17374,893.5302 616.23124,893.5302 C 625.21346,893.69619 632.05344,897.81774 628.60524,918.9422 L 695.98124,918.9422 C 707.35934,864.3192 671.79694,845.2366 624.97224,845.2366 C 562.08414,845.2366 519.22424,884.4038 508.72024,942.3655 C 496.17704,1001.3418 517.89037,1041.0509 583.08664,1041.0509 C 629.14714,1041.0509 674.80044,1018.6204 685.71864,967.3359 L 616.77354,967.3359 L 616.773,967.336 z "
         style="fill:#ffffff;fill-rule:nonzero"
         id="_44675096" /><path
         d="M 804.222,960.894 L 772.7905,960.894 L 803.9589,890.6241 L 804.45687,890.6241 L 804.22198,960.894 L 804.222,960.894 z M 766.7147,850.044 L 667.6629,1036.2 L 738.2428,1036.2 L 752.0857,1006.2467 L 805.4153,1006.2467 L 806.25777,1036.2 L 882.51267,1036.2 L 862.30577,850.044 L 766.71467,850.044 L 766.7147,850.044 z "
         style="fill:#ffffff;fill-rule:nonzero"
         id="_44670928" /><polygon
         points="1064.19,850.044 898.732,850.044 888.115,899.973 933.978,899.973 905.031,1036.24 978.746,1036.24 1007.69,899.973 1053.58,899.973 1064.19,850.044 "
         style="fill:#ffffff;fill-rule:nonzero"
         id="_45215720" /><polygon
         points="1078.11,850.044 1038.52,1036.24 1112.24,1036.24 1151.81,850.044 1078.11,850.044 "
         style="fill:#ffffff;fill-rule:nonzero"
         id="_44646160" /></g><path
       d="M 1554.77,838.278 C 1505.706,847.98681 1468.7155,891.2975 1468.7155,943.205 C 1468.7155,979.2905 1486.5578,1011.198 1513.8928,1030.5655 L 1554.77,838.2775 L 1554.77,838.278 z "
       style="fill:#ffffff;fill-rule:nonzero"
       id="_44645984" /><path
       d="M 1575.71,836.22 C 1573.9624,836.22 1572.2274,836.26385 1570.5393,836.33275 L 1527.4917,1038.7517 C 1541.9892,1046.0897 1558.3626,1050.2206 1575.7101,1050.2206 C 1634.7961,1050.2206 1682.6921,1002.3029 1682.6921,943.20465 C 1682.6921,884.11555 1634.7963,836.21965 1575.7101,836.21965 L 1575.71,836.22 z "
       style="fill:#ffffff;fill-rule:nonzero"
       id="_44648344" /></g></g>
</svg>